<svg width="219" height="197" viewBox="0 0 219 197" fill="none" xmlns="http://www.w3.org/2000/svg">
<g clip-path="url(#clip0_2_1018)">
<rect x="61" width="183" height="122" transform="rotate(30 61 0)" fill="#111111"/>
<g clip-path="url(#clip1_2_1018)">
<path d="M158.032 148.648C157.754 147.665 157.025 146.871 156.071 146.511C155.116 146.15 154.046 146.263 153.187 146.815C150.233 148.716 147.029 150.181 143.679 151.177C144.803 149.71 145.83 148.173 146.754 146.572C148.528 143.499 149.942 140.1 150.956 136.467C154.285 124.531 152.355 111.697 145.66 101.256C145.077 100.347 144.079 99.7902 142.999 99.7727C141.919 99.7553 140.903 100.28 140.291 101.169C134.094 110.185 124.268 115.969 113.321 117.04C113.176 117.055 113.031 117.071 112.886 117.086C112.587 117.119 112.304 117.15 112.047 117.165C112.007 117.168 111.967 117.171 111.927 117.175C105.041 117.85 98.3369 120.179 92.5375 123.911C86.6412 127.708 81.8864 132.691 78.4054 138.72C76.6321 141.792 75.2185 145.191 74.2034 148.825C68.8581 167.981 77.1437 188.299 94.3524 198.234C115.156 210.245 141.853 203.091 153.864 182.286C159.788 172.027 161.268 160.081 158.032 148.648Z" fill="white" fill-opacity="0.02"/>
<circle cx="114.253" cy="157.763" r="13" transform="rotate(30 114.253 157.763)" fill="#111111"/>
</g>
<rect x="27.8923" y="81.3442" width="48" height="24" transform="rotate(30 27.8923 81.3442)" fill="url(#paint0_linear_2_1018)"/>
<path d="M32.3982 100.111L33.4745 99.2318L35.3598 100.32L35.1362 101.692L35.9622 102.169L36.7938 96.6981L35.9278 96.1981L31.6054 99.6538L32.3982 100.111ZM35.2538 97.7809L35.959 97.1133L35.7334 98.0578L35.4903 99.5251L34.098 98.7213L35.2538 97.7809ZM36.4197 104.085L37.6351 101.98C37.4532 102.541 37.4764 103.132 38.1226 103.505C38.922 103.967 39.8013 103.613 40.4052 102.567C41.009 101.521 40.8758 100.583 40.0897 100.129C39.4435 99.7557 38.9071 100.023 38.5082 100.468L39.0082 99.6021L38.2621 99.1713L35.6736 103.655L36.4197 104.085ZM37.9582 101.421L38.189 101.021C38.4967 100.488 38.9203 100.262 39.4466 100.566C39.9129 100.835 40.0622 101.392 39.6391 102.125C39.216 102.858 38.6591 103.007 38.1928 102.738C37.6665 102.434 37.6505 101.954 37.9582 101.421ZM40.1149 106.219L41.3303 104.114C41.1484 104.675 41.1716 105.266 41.8177 105.639C42.6172 106.1 43.4965 105.746 44.1004 104.7C44.7042 103.655 44.571 102.716 43.7849 102.262C43.1387 101.889 42.6023 102.157 42.2034 102.602L42.7034 101.736L41.9573 101.305L39.3688 105.788L40.1149 106.219ZM41.6534 103.554L41.8841 103.154C42.1918 102.622 42.6155 102.395 43.1418 102.699C43.6081 102.968 43.7574 103.525 43.3343 104.258C42.9112 104.991 42.3543 105.14 41.888 104.871C41.3617 104.567 41.3457 104.087 41.6534 103.554ZM44.5255 107.113L47.1024 102.65L46.3563 102.219L43.7794 106.682L44.5255 107.113ZM45.3053 109.047C45.8315 109.351 46.3459 109.337 46.956 108.818L50.1589 106.04L49.3329 105.563L47.6917 107.067L46.9586 107.798L47.2254 106.798L47.7007 104.621L46.8813 104.148L46.1962 107.811L46.6558 108.077L46.492 108.222C46.1644 108.512 45.9392 108.533 45.686 108.387C45.3862 108.214 45.2941 107.912 45.2632 107.566L44.564 107.961C44.5977 108.318 44.8389 108.778 45.3053 109.047Z" fill="white"/>
<path d="M45.3917 56.9397C47.2204 57.9955 48.6063 57.5566 49.7775 55.5281L51.9929 51.6909L50.8737 51.0448L48.6525 54.8919C47.8852 56.2209 47.144 56.5125 46.0248 55.8663C44.9256 55.2317 44.7875 54.4325 45.5548 53.1035L47.776 49.2563L46.6568 48.6101L44.4414 52.4473C43.2702 54.4758 43.6031 55.907 45.3917 56.9397ZM49.9552 59.4412L53.2547 57.6955L53.4326 61.4489L54.8516 62.2681L54.4648 57.5149L58.5671 55.4865L57.2181 54.7077L54.0777 56.3854L53.9904 52.8442L52.5615 52.0192L52.9006 56.5318L48.5462 58.6277L49.9552 59.4412ZM60.164 65.3352C62.2424 66.5352 64.0901 65.8966 65.2843 63.8281C66.4785 61.7596 66.0978 59.8344 64.0294 58.6402L61.5012 57.1806L57.6358 63.8756L60.164 65.3352ZM63.3125 59.5587C64.7015 60.3606 65.0744 61.4686 64.1052 63.1473C63.1359 64.8261 61.99 65.0571 60.611 64.261L59.3419 63.5283L62.0535 58.8318L63.3125 59.5587ZM66.517 69.1364C67.5962 69.7595 68.5384 69.6506 69.2312 69.3045L68.9571 68.1869C68.5407 68.4928 67.9071 68.7132 67.0578 68.2229C66.2883 67.7786 66.0499 67.0147 66.4918 66.1108L69.9693 68.1185C70.0469 68.0301 70.1881 67.8318 70.2919 67.6519C71.0708 66.3029 70.821 64.8663 69.3621 64.024C67.9931 63.2336 66.4611 63.6948 65.5784 65.2237C64.7015 66.7425 65.0681 68.2999 66.517 69.1364ZM68.8428 64.9233C69.5823 65.3503 69.7797 66.0238 69.4154 66.8394L66.9172 65.3971C67.4629 64.6596 68.1533 64.5253 68.8428 64.9233ZM71.6074 72.0753C72.6366 72.6696 73.7229 72.6572 74.2768 71.6979C74.6806 70.9985 74.5348 70.328 73.6071 69.4194L73.1041 68.9291C72.5427 68.3785 72.3579 68.0986 72.5598 67.7488C72.7502 67.4191 73.1438 67.4065 73.5735 67.6546C74.203 68.018 74.538 68.6378 74.5662 69.3736L75.6296 69.0548C75.6471 68.3322 75.2061 67.4114 74.1669 66.8114C73.0477 66.1652 72.0009 66.2937 71.4759 67.203C70.9625 68.0923 71.4758 68.8417 72.1414 69.4658L72.6986 70.0007C73.1632 70.4421 73.4637 70.7755 73.256 71.1352C73.0541 71.485 72.6462 71.476 72.1666 71.1991C71.2972 70.6972 70.9861 69.8514 70.999 69.206L69.9357 69.5247C69.8612 70.5076 70.5681 71.4753 71.6074 72.0753ZM78.7163 68.6386L79.374 67.4994L78.2548 66.8532L77.5971 67.9924L78.7163 68.6386ZM75.5086 74.1945L78.3182 69.328L77.199 68.6819L74.3894 73.5483L75.5086 74.1945ZM79.5432 74.5786C80.7423 75.2709 81.9671 75.0188 82.5613 73.9895C82.9133 73.38 82.9219 72.7188 82.6211 72.1321L84.1074 71.6579L83.2416 70.6651L82.3268 71.6957C82.1289 71.4616 81.878 71.2501 81.5682 71.0712C80.3691 70.3789 79.1285 70.6353 78.5343 71.6645C78.1766 72.2841 78.1822 72.9668 78.4987 73.5492C77.8702 73.5994 77.2424 73.8099 76.9886 74.2495C76.7751 74.6193 76.8722 74.9818 77.1643 75.2836C76.6312 75.1224 76.0473 75.1184 75.7819 75.578C75.43 76.1876 75.9713 77.073 77.3303 77.8576C79.099 78.8788 80.4022 78.6985 80.9329 77.7792C81.3541 77.0498 81.0495 76.3543 80.0802 75.7947L78.5114 74.8889C78.0617 74.6293 78.0068 74.4244 78.151 74.1746C78.2491 74.0047 78.4686 73.8783 78.6451 73.7803C78.8541 74.0875 79.1635 74.3594 79.5432 74.5786ZM80.0047 73.7792C79.4751 73.4734 79.2516 72.8914 79.6035 72.2818C79.9554 71.6723 80.5713 71.5748 81.1009 71.8806C81.6305 72.1864 81.854 72.7684 81.5021 73.378C81.1502 73.9875 80.5344 74.085 80.0047 73.7792ZM77.8649 77.0471C76.9755 76.5336 76.697 76.093 76.9047 75.7333C77.0028 75.5634 77.215 75.4728 77.3884 75.4263L79.4169 76.5975C79.8465 76.8455 79.9929 77.0766 79.8429 77.3364C79.6064 77.7461 78.9141 77.6529 77.8649 77.0471ZM82.9152 78.4707L84.4902 75.7427C84.9517 74.9433 85.5373 74.5752 86.3567 75.0483C87.1061 75.481 87.0695 76.0061 86.7233 76.6056L84.9637 79.6534L86.0929 80.3053L88.0486 76.9178C88.6313 75.9085 88.3806 75.0044 87.4313 74.4563C86.462 73.8967 85.5816 74.2677 84.9575 74.9333L85.7248 73.6043L84.6057 72.9581L81.796 77.8245L82.9152 78.4707ZM89.3224 82.3031C90.4016 82.9262 91.3438 82.8173 92.0366 82.4712L91.7625 81.3537C91.3461 81.6595 90.7126 81.88 89.8632 81.3896C89.0938 80.9453 88.8553 80.1815 89.2973 79.2775L92.7747 81.2852C92.8524 81.1968 92.9935 80.9985 93.0973 80.8186C93.8762 79.4696 93.6264 78.033 92.1675 77.1907C90.7985 76.4003 89.2665 76.8615 88.3838 78.3904C87.5069 79.9093 87.8735 81.4666 89.3224 82.3031ZM91.6483 78.0901C92.3877 78.517 92.5851 79.1905 92.2208 80.0061L89.7226 78.5638C90.2683 77.8263 90.9588 77.692 91.6483 78.0901ZM93.669 84.6794L95.2151 82.0014C95.6824 81.192 96.5713 80.8524 97.1309 81.1755C97.4606 81.3659 97.4636 81.6607 97.3079 81.9305C97.1463 82.2103 96.8118 82.4435 96.5596 82.5111L97.7088 83.1746C97.8852 83.0766 98.2171 82.8019 98.4882 82.3322C98.9036 81.6128 98.6847 80.9534 98.0752 80.6015C97.2058 80.0996 96.3123 80.5164 95.6824 81.192L96.4786 79.813L95.3594 79.1668L92.5498 84.0332L93.669 84.6794Z" fill="white"/>
<path d="M35.3002 68.3006L36.6321 67.2398L38.6372 68.3975L38.3845 70.0814L38.8708 70.3622L39.6558 64.8642L39.2094 64.6065L34.8405 68.0352L35.3002 68.3006ZM38.5318 65.7341L39.1649 65.1759L38.9981 66.0033L38.7071 67.9227L37.0084 66.9419L38.5318 65.7341ZM40.3646 71.3223C40.9975 71.6877 41.5911 71.4442 41.9833 70.9956L41.4795 71.8683L41.9125 72.1183L44.4894 67.6549L44.0564 67.4049L42.818 69.55C43.0103 68.986 42.9244 68.3502 42.2916 67.9848C41.4589 67.504 40.5785 67.8751 39.9977 68.881C39.4131 69.8936 39.5319 70.8415 40.3646 71.3223ZM40.444 69.1387C40.9594 68.246 41.6337 68.0935 42.2133 68.4281C42.8595 68.8012 42.8833 69.4367 42.5757 69.9697L42.2295 70.5692C41.9218 71.1022 41.3556 71.4059 40.7094 71.0328C40.1298 70.6982 39.9248 70.038 40.444 69.1387ZM44.1981 73.4378L47.25 70.9364L46.7837 70.6671L44.9678 72.2123L44.1306 72.9547L44.3416 71.8508L44.7718 69.5056L44.2922 69.2287L43.6518 73.1224L44.1981 73.4378ZM47.0269 75.1599C47.9062 75.6676 48.9027 75.3724 49.4873 74.3598C50.0719 73.3472 49.8293 72.3367 48.9499 71.829C48.0706 71.3213 47.0808 71.6203 46.4962 72.6329C45.9115 73.6455 46.1475 74.6522 47.0269 75.1599ZM47.2422 74.7868C46.616 74.4253 46.4474 73.7328 46.9358 72.8867C47.4281 72.034 48.116 71.8272 48.7422 72.1887C49.3751 72.5541 49.5399 73.2533 49.0476 74.106C48.5592 74.952 47.8751 75.1522 47.2422 74.7868ZM51.9614 72.8926L52.3614 72.1998L51.9218 71.946L51.5218 72.6388L51.9614 72.8926ZM49.7845 76.6632L51.6307 73.4655L51.191 73.2117L49.3448 76.4093L49.7845 76.6632ZM51.7211 77.879C52.1341 78.1174 52.5588 78.105 52.8333 77.9526L52.9262 77.4378C52.6889 77.6028 52.3365 77.6747 52.05 77.5093C51.7702 77.3477 51.6035 77.0827 51.8689 76.623L52.9804 74.6978L54.0529 75.317L54.2491 74.9773L53.1766 74.3581L53.6304 73.572L53.0089 73.6484L52.7435 74.1081L52.2239 73.8081L52.0278 74.1478L52.5474 74.4478L51.3666 76.493C51.032 77.0725 51.2348 77.5982 51.7211 77.879ZM56.1663 80.3477C57.5719 81.1592 58.7378 80.7398 59.5532 79.3275C60.3686 77.9152 60.1488 76.6958 58.7432 75.8843L57.2709 75.0343L54.694 79.4977L56.1663 80.3477ZM58.4601 76.2361C59.566 76.8745 59.853 77.7775 59.1068 79.0698C58.3607 80.3622 57.4352 80.5651 56.3294 79.9267L55.3568 79.3651L57.4875 75.6745L58.4601 76.2361ZM61.6808 78.5041L62.0808 77.8113L61.6411 77.5574L61.2411 78.2503L61.6808 78.5041ZM59.5039 82.2747L61.35 79.077L60.9104 78.8232L59.0642 82.0208L59.5039 82.2747ZM62.2452 82.5428C62.9913 82.9735 63.7574 82.7852 64.142 82.119C64.3689 81.726 64.3842 81.2995 64.2036 80.9199L65.1727 80.5646L64.813 80.126L64.1071 80.7487C63.9734 80.5649 63.7938 80.3991 63.5606 80.2645C62.8211 79.8375 62.0484 80.0221 61.6638 80.6882C61.4292 81.0946 61.4234 81.5354 61.6145 81.9122C61.2288 81.9648 60.8751 82.1159 60.7251 82.3757C60.6135 82.5689 60.6317 82.7837 60.8169 82.9705C60.5061 82.9243 60.0671 82.9462 59.8748 83.2793C59.6209 83.719 59.9695 84.2844 60.7822 84.7537C61.8081 85.346 62.6672 85.2735 63.0095 84.6806C63.2787 84.2142 63.0631 83.7877 62.5035 83.4647L61.5109 82.8916C61.1645 82.6916 61.1194 82.5235 61.2233 82.3436C61.3117 82.1904 61.5078 82.0815 61.677 82.0193C61.8097 82.2203 61.9987 82.4005 62.2452 82.5428ZM62.4414 82.203C61.9684 81.93 61.8094 81.4207 62.0902 80.9344C62.3709 80.4481 62.8915 80.3311 63.3644 80.6042C63.8441 80.8811 64.0031 81.3904 63.7223 81.8767C63.4415 82.363 62.921 82.48 62.4414 82.203ZM60.9822 84.4072C60.376 84.0572 60.1268 83.6735 60.3076 83.3604C60.4268 83.1539 60.7077 83.0674 60.9253 83.0598L62.2243 83.8098C62.604 84.029 62.7185 84.2461 62.5724 84.4992C62.3608 84.8656 61.755 84.8534 60.9822 84.4072ZM66.4039 81.231L66.8039 80.5382L66.3642 80.2843L65.9642 80.9771L66.4039 81.231ZM64.227 85.0015L66.0731 81.8039L65.6334 81.55L63.7873 84.7477L64.227 85.0015ZM66.1636 86.2173C66.5766 86.4558 67.0012 86.4434 67.2757 86.291L67.3687 85.7762C67.1313 85.9411 66.7789 86.013 66.4925 85.8476C66.2127 85.6861 66.0459 85.4211 66.3113 84.9614L67.4229 83.0362L68.4954 83.6554L68.6916 83.3156L67.619 82.6964L68.0729 81.9103L67.4514 81.9867L67.186 82.4464L66.6664 82.1464L66.4702 82.4862L66.9898 82.7862L65.8091 84.8313C65.4745 85.4109 65.6773 85.9366 66.1636 86.2173ZM68.1483 87.3543C68.7878 87.7236 69.4855 87.4691 69.8574 87.0709L69.6613 87.4107C69.4267 87.817 69.5591 88.08 69.8788 88.2646L70.1786 88.4377L70.4055 88.0447L70.219 87.937C70.0658 87.8485 70.0271 87.7463 70.1233 87.5797L70.9887 86.0808C71.4002 85.368 71.2638 84.7119 70.5177 84.2811C69.8382 83.8888 69.1527 83.9993 68.7605 84.217L68.89 84.7004C69.2604 84.4435 69.7645 84.3703 70.2441 84.6473C70.7638 84.9473 70.8287 85.3578 70.5518 85.8375L70.5364 85.8641L69.0047 85.717C68.443 85.6592 67.9761 85.7449 67.7338 86.1646C67.4876 86.5909 67.622 87.0505 68.1483 87.3543ZM68.2081 86.3585C68.3465 86.1187 68.5987 86.0511 69.0374 86.0912L70.3613 86.1982L70.0344 86.7645C69.7844 87.1975 69.0793 87.4033 68.4864 87.061C68.1733 86.8802 68.0542 86.625 68.2081 86.3585ZM71.3246 89.0993L73.9015 84.636L73.4618 84.3821L70.8849 88.8455L71.3246 89.0993ZM73.7613 90.5062L75.0932 89.4454L77.0984 90.6031L76.8457 92.287L77.332 92.5677L78.1169 87.0697L77.6706 86.8121L73.3017 90.2408L73.7613 90.5062ZM76.9929 87.9397L77.6261 87.3815L77.4592 88.2089L77.1683 90.1283L75.4695 89.1475L76.9929 87.9397ZM79.5436 92.53C80.2898 92.9608 81.0558 92.7724 81.4404 92.1063C81.6673 91.7132 81.6826 91.2868 81.502 90.9072L82.4711 90.5518L82.1115 90.1132L81.4055 90.736C81.2718 90.5522 81.0922 90.3863 80.859 90.2517C80.1196 89.8248 79.3469 90.0093 78.9622 90.6755C78.7276 91.0818 78.7219 91.5226 78.9129 91.8994C78.5272 91.9521 78.1735 92.1032 78.0235 92.363C77.912 92.5562 77.9301 92.7709 78.1153 92.9578C77.8045 92.9116 77.3655 92.9335 77.1732 93.2666C76.9193 93.7062 77.2679 94.2717 78.0807 94.7409C79.1066 95.3332 79.9656 95.2607 80.3079 94.6678C80.5771 94.2015 80.3615 93.775 79.8019 93.4519L78.8093 92.8788C78.4629 92.6788 78.4179 92.5107 78.5217 92.3308C78.6102 92.1776 78.8062 92.0688 78.9754 92.0065C79.1081 92.2075 79.2972 92.3877 79.5436 92.53ZM79.7398 92.1903C79.2668 91.9172 79.1078 91.4079 79.3886 90.9216C79.6694 90.4353 80.1899 90.3184 80.6629 90.5915C81.1425 90.8684 81.3015 91.3776 81.0207 91.8639C80.74 92.3503 80.2194 92.4672 79.7398 92.1903ZM78.2807 94.3945C77.6744 94.0445 77.4252 93.6608 77.606 93.3477C77.7252 93.1412 78.0061 93.0546 78.2237 93.047L79.5227 93.797C79.9024 94.0162 80.0169 94.2333 79.8708 94.4865C79.6592 94.8529 79.0534 94.8406 78.2807 94.3945ZM82.3407 95.5483C83.0202 95.9406 83.635 95.8604 84.0885 95.5981L84.0028 95.1311C83.6821 95.3635 83.1984 95.555 82.5523 95.1819C81.9194 94.8166 81.7171 94.1668 82.152 93.3521L84.5902 94.7597C84.6277 94.7103 84.6871 94.6381 84.7333 94.5581C85.291 93.5922 85.0832 92.6905 84.2105 92.1867C83.3445 91.6867 82.39 91.9706 81.79 93.0098C81.1785 94.069 81.448 95.0329 82.3407 95.5483ZM84.0028 92.5464C84.589 92.8849 84.7706 93.4782 84.3951 94.2208L82.3433 93.0361C82.8187 92.3513 83.4166 92.208 84.0028 92.5464ZM84.9538 96.9682L86.0231 95.1162C86.3423 94.5633 86.9001 94.228 87.5729 94.6165C88.1258 94.9357 88.181 95.3939 87.881 95.9136L86.6926 97.972L87.1322 98.2259L88.3784 96.0675C88.8015 95.3347 88.5905 94.7155 87.9576 94.3501C87.3181 93.9809 86.6979 94.209 86.2846 94.6632L86.8 93.7706L86.3603 93.5167L84.5142 96.7143L84.9538 96.9682ZM89.2944 99.5631C90.0938 100.025 90.8627 99.8467 91.3624 99.2736L91.0465 98.8515C90.6684 99.3526 90.1255 99.5544 89.5126 99.2005C88.8798 98.8351 88.7216 98.1398 89.2101 97.2938C89.7024 96.4411 90.3836 96.2304 91.0165 96.5958C91.6294 96.9496 91.7222 97.5273 91.4773 98.1053L92.0008 98.1678C92.2473 97.4485 92.0169 96.6937 91.2242 96.236C90.3182 95.713 89.3637 95.9969 88.7637 97.0361C88.1637 98.0753 88.3951 99.0438 89.2944 99.5631ZM91.0483 101.988C91.4813 102.238 91.929 102.186 92.4117 101.78L95.8294 98.9837L95.3698 98.7183L93.305 100.448L92.691 100.973L92.8453 100.183L93.3046 97.526L92.8383 97.2568L92.2262 101.025L92.4765 101.16L92.172 101.411C91.8051 101.723 91.5378 101.755 91.278 101.605C90.9849 101.436 90.9089 101.152 90.9257 100.816L90.4946 100.993C90.476 101.302 90.6153 101.738 91.0483 101.988Z" fill="white"/>
<rect x="65.3923" y="16.3923" width="48" height="24" transform="rotate(30 65.3923 16.3923)" stroke="white" stroke-width="0.48077"/>
<path d="M67.1985 33.6009L68.2986 31.6957L70.377 32.8957L70.6001 32.5093L68.5216 31.3093L69.5524 29.524L72.0639 30.974L72.287 30.5876L69.3358 28.8837L66.7589 33.3471L67.1985 33.6009ZM71.1082 35.947C71.7677 36.3278 72.3851 36.0891 72.806 35.6216L72.2791 36.5342L72.7121 36.7842L74.5583 33.5866L74.1253 33.3366L73.0599 35.1819C72.7368 35.7415 72.1896 36.0739 71.4968 35.6739C70.9505 35.3585 70.8953 34.9003 71.1914 34.3874L72.3799 32.3289L71.9469 32.0789L70.7046 34.2306C70.2777 34.9701 70.482 35.5854 71.1082 35.947ZM74.0864 37.5777L76.6634 33.1143L76.2237 32.8605L73.6468 37.3238L74.0864 37.5777ZM75.4591 38.3702L78.036 33.9068L77.5964 33.653L75.0194 38.1163L75.4591 38.3702ZM77.3957 39.586C77.8087 39.8245 78.2334 39.812 78.5079 39.6596L78.6008 39.1448C78.3635 39.3098 78.0111 39.3817 77.7246 39.2163C77.4448 39.0548 77.2781 38.7897 77.5435 38.3301L78.655 36.4048L79.7275 37.0241L79.9237 36.6843L78.8512 36.0651L79.305 35.279L78.6835 35.3554L78.4181 35.8151L77.8985 35.5151L77.7024 35.8548L78.222 36.1548L77.0412 38.2C76.7066 38.7795 76.9094 39.3052 77.3957 39.586ZM81.5134 36.8382L81.9134 36.1454L81.4737 35.8916L81.0737 36.5844L81.5134 36.8382ZM79.3365 40.6088L81.1826 37.4111L80.7429 37.1573L78.8968 40.3549L79.3365 40.6088ZM80.7091 41.4013L81.7784 39.5493C82.0976 38.9964 82.6554 38.6611 83.2216 38.9881C83.7212 39.2765 83.81 39.692 83.4869 40.2515L82.2946 42.3167L82.7277 42.5667L83.7969 40.7147C84.1161 40.1618 84.6739 39.8265 85.2468 40.1573C85.7397 40.4419 85.8285 40.8573 85.5055 41.4169L84.3131 43.4821L84.7528 43.7359L86.0028 41.5708C86.4259 40.8381 86.291 40.2717 85.6782 39.9178C85.0786 39.5717 84.4545 39.8065 84.0441 40.2712C84.3838 39.6058 84.2326 39.0832 83.653 38.7486C83.0601 38.4063 82.457 38.6354 82.0399 39.0963L82.5553 38.2037L82.1156 37.9498L80.2695 41.1474L80.7091 41.4013ZM86.9437 45.0896C87.6231 45.4819 88.238 45.4017 88.6914 45.1394L88.6057 44.6724C88.285 44.9048 87.8014 45.0963 87.1552 44.7232C86.5223 44.3578 86.3201 43.7081 86.755 42.8933L89.1932 44.301C89.2306 44.2516 89.2901 44.1793 89.3362 44.0994C89.8939 43.1334 89.6861 42.2318 88.8134 41.728C87.9474 41.228 86.993 41.5119 86.393 42.5511C85.7814 43.6103 86.051 44.5742 86.9437 45.0896ZM88.6057 42.0877C89.192 42.4262 89.3735 43.0195 88.9981 43.762L86.9463 42.5774C87.4216 41.8926 88.0195 41.7492 88.6057 42.0877Z" fill="white"/>
<rect x="113.024" y="43.8923" width="48" height="24" transform="rotate(30 113.024 43.8923)" stroke="white" stroke-width="0.48077"/>
<path d="M119.072 63.6388C120.338 64.3696 121.771 63.856 122.521 62.5569C123.263 61.2712 122.991 59.773 121.726 59.0422C120.46 58.3115 119.026 58.8251 118.284 60.1108C117.534 61.4098 117.806 62.9081 119.072 63.6388ZM119.317 63.2296C118.258 62.6181 118.113 61.4687 118.744 60.3762C119.367 59.297 120.439 58.8409 121.498 59.4524C122.55 60.0601 122.691 61.2162 122.068 62.2954C121.437 63.3879 120.37 63.8373 119.317 63.2296ZM122.509 65.5345L123.578 63.6825C123.898 63.1296 124.455 62.7943 125.128 63.1828C125.681 63.502 125.736 63.9602 125.436 64.4798L124.248 66.5383L124.687 66.7922L125.934 64.6338C126.357 63.901 126.146 63.2818 125.513 62.9164C124.873 62.5471 124.253 62.7753 123.84 63.2295L124.355 62.3368L123.916 62.083L122.069 65.2806L122.509 65.5345ZM126.685 68.0344C127.278 68.3767 127.955 68.4035 128.309 67.7907C128.571 67.3377 128.462 66.9107 127.892 66.3595L127.527 66.0068C127.126 65.6243 126.956 65.3659 127.148 65.0328C127.34 64.6997 127.717 64.6776 128.104 64.9007C128.603 65.1891 128.798 65.6212 128.694 66.1389L129.17 66.0847C129.271 65.5394 129.021 64.9419 128.342 64.5496C127.682 64.1689 127.043 64.2614 126.723 64.8144C126.393 65.3873 126.742 65.8735 127.137 66.2522L127.512 66.6021C127.887 66.952 128.105 67.2373 127.912 67.5704C127.72 67.9035 127.34 67.9151 126.914 67.669C126.268 67.2959 126.076 66.7054 126.226 66.2147L125.757 66.2727C125.589 67.0105 126.032 67.6574 126.685 68.0344ZM131.192 65.5199L131.592 64.8271L131.152 64.5733L130.752 65.2661L131.192 65.5199ZM129.015 69.2905L130.861 66.0929L130.421 65.839L128.575 69.0366L129.015 69.2905ZM130.951 70.5063C131.364 70.7448 131.789 70.7323 132.063 70.5799L132.156 70.0651C131.919 70.2301 131.567 70.302 131.28 70.1366C131 69.9751 130.834 69.71 131.099 69.2504L132.211 67.3251L133.283 67.9444L133.479 67.6046L132.407 66.9854L132.861 66.1993L132.239 66.2757L131.974 66.7354L131.454 66.4354L131.258 66.7751L131.778 67.0751L130.597 69.1203C130.262 69.6999 130.465 70.2255 130.951 70.5063ZM133.506 71.9722C134.185 72.3645 134.8 72.2842 135.253 72.022L135.168 71.555C134.847 71.7873 134.363 71.9789 133.717 71.6058C133.084 71.2404 132.882 70.5907 133.317 69.7759L135.755 71.1836C135.793 71.1342 135.852 71.0619 135.898 70.982C136.456 70.016 136.248 69.1144 135.375 68.6106C134.509 68.1106 133.555 68.3945 132.955 69.4337C132.343 70.4929 132.613 71.4568 133.506 71.9722ZM135.168 68.9703C135.754 69.3088 135.935 69.9021 135.56 70.6446L133.508 69.46C133.984 68.7751 134.582 68.6318 135.168 68.9703Z" fill="white"/>
<rect x="161.521" y="71.8923" width="48" height="24" transform="rotate(30 161.521 71.8923)" stroke="white" stroke-width="0.48077"/>
<path d="M166.221 91.6597L166.571 91.0535C167.36 91.4558 168.195 91.3784 168.626 90.6323C169.099 89.8129 168.633 89.1887 168.039 88.6327L167.994 88.5886L168.952 86.9298C169.334 87.2836 169.495 87.7585 169.374 88.3371L169.909 88.2556C170.019 87.5729 169.76 86.9611 169.198 86.5035L169.567 85.864L169.22 85.664L168.87 86.2702C168.851 86.2586 168.837 86.2509 168.817 86.2394C168.064 85.8048 167.136 85.8283 166.678 86.6211C166.228 87.4005 166.67 88.0198 167.212 88.5279L167.444 88.7417L166.467 90.4338C165.972 90.0595 165.579 89.4328 165.777 88.6589L165.268 88.7558C165.097 89.652 165.554 90.3686 166.232 90.8401L165.874 91.4597L166.221 91.6597ZM167.586 88.2023C167.087 87.7278 166.876 87.3395 167.157 86.8531C167.438 86.3668 168.032 86.337 168.572 86.6486C168.592 86.6601 168.612 86.6717 168.632 86.6832L167.694 88.3087L167.586 88.2023ZM168.179 90.3918C167.875 90.918 167.324 90.9022 166.805 90.6471L167.744 89.0216C168.255 89.521 168.463 89.8988 168.179 90.3918ZM171.838 94.0145L172.061 93.6282L170.162 92.532L169.587 92.2356L170.267 92.1041L171.629 91.7619C172.251 91.6063 173.249 91.3559 173.664 90.6365C174.056 89.957 173.96 89.1999 173.094 88.6999C172.075 88.1115 171.035 88.4522 170.62 89.3854L170.876 89.8799C171.279 88.9218 172.013 88.635 172.825 89.1042C173.432 89.4542 173.441 89.9924 173.202 90.4054C172.898 90.9317 172.259 91.1311 171.534 91.3254L169.09 91.9748L168.893 92.3145L171.838 94.0145ZM174.155 95.441C175.354 96.1334 176.501 95.4544 177.251 94.1553C177.993 92.8696 178.008 91.5367 176.809 90.8444C175.61 90.1521 174.469 90.835 173.727 92.1207C172.977 93.4197 172.956 94.7487 174.155 95.441ZM174.4 95.0319C173.454 94.4857 173.553 93.4681 174.18 92.3822C174.799 91.3097 175.635 90.7085 176.581 91.2547C177.527 91.8008 177.417 92.8212 176.798 93.8938C176.171 94.9796 175.346 95.578 174.4 95.0319ZM178.358 97.8674C179.557 98.5597 180.704 97.8807 181.454 96.5817C182.196 95.296 182.21 93.9631 181.011 93.2708C179.812 92.5785 178.672 93.2614 177.93 94.5471C177.18 95.8461 177.158 97.1751 178.358 97.8674ZM178.603 97.4582C177.657 96.9121 177.756 95.8945 178.383 94.8086C179.002 93.7361 179.837 93.1349 180.783 93.681C181.729 94.2272 181.62 95.2476 181.001 96.3202C180.374 97.406 179.549 98.0044 178.603 97.4582ZM181.485 99.5844L182.328 98.1255L183.766 97.6949L183.977 101.023L184.516 101.334L184.26 97.5626L186.94 96.7826L186.387 96.4634L183.534 97.3123L182.608 97.5944L183.055 96.8664L184.062 95.1211L183.623 94.8672L181.046 99.3306L181.485 99.5844Z" fill="white"/>
<path d="M130.49 156.745L130.874 156.079L129.162 155.09L128.458 154.772L129.2 154.686L130.135 154.497C130.835 154.377 131.833 154.127 132.248 153.407C132.671 152.675 132.539 151.888 131.64 151.369C130.614 150.776 129.511 151.01 129.015 151.914L129.387 152.733C129.843 151.85 130.498 151.669 131.158 152.05C131.591 152.3 131.62 152.68 131.435 153C131.193 153.42 130.69 153.583 130.015 153.752L127.63 154.33L127.299 154.902L130.49 156.745ZM133.856 158.688L134.437 157.682L135.189 158.117L135.566 157.464L134.814 157.029L136.433 154.225L135.64 153.767L131.793 155.383L131.459 155.963L133.69 157.251L133.11 158.257L133.856 158.688ZM132.662 155.787L135.125 154.767L134.067 156.599L132.662 155.787ZM136.98 160.492L138.057 159.612L139.942 160.701L139.718 162.073L140.544 162.55L141.376 157.079L140.51 156.579L136.188 160.034L136.98 160.492ZM139.836 158.161L140.541 157.494L140.316 158.438L140.072 159.906L138.68 159.102L139.836 158.161ZM141.002 164.466L142.217 162.361C142.035 162.922 142.059 163.513 142.705 163.886C143.504 164.347 144.384 163.993 144.987 162.948C145.591 161.902 145.458 160.963 144.672 160.509C144.026 160.136 143.489 160.404 143.09 160.849L143.59 159.983L142.844 159.552L140.256 164.035L141.002 164.466ZM142.54 161.801L142.771 161.402C143.079 160.869 143.503 160.643 144.029 160.946C144.495 161.216 144.644 161.773 144.221 162.505C143.798 163.238 143.241 163.387 142.775 163.118C142.249 162.814 142.233 162.334 142.54 161.801ZM144.697 166.599L145.912 164.494C145.731 165.055 145.754 165.646 146.4 166.019C147.199 166.481 148.079 166.127 148.683 165.081C149.286 164.035 149.153 163.097 148.367 162.643C147.721 162.27 147.184 162.537 146.786 162.982L147.286 162.116L146.539 161.685L143.951 166.169L144.697 166.599ZM146.236 163.935L146.466 163.535C146.774 163.002 147.198 162.776 147.724 163.08C148.19 163.349 148.34 163.906 147.916 164.639C147.493 165.372 146.936 165.521 146.47 165.251C145.944 164.948 145.928 164.468 146.236 163.935ZM149.108 167.494L151.685 163.03L150.938 162.6L148.362 167.063L149.108 167.494ZM152.781 164.676L153.22 163.917L152.474 163.486L152.035 164.245L152.781 164.676ZM150.643 168.38L152.516 165.136L151.77 164.705L149.897 167.949L150.643 168.38ZM152.833 169.733C153.552 170.149 154.18 170.076 154.642 169.845L154.459 169.1C154.182 169.304 153.759 169.451 153.193 169.124C152.68 168.828 152.521 168.319 152.816 167.716L155.134 169.055C155.186 168.996 155.28 168.863 155.349 168.744C155.869 167.844 155.702 166.886 154.729 166.325C153.817 165.798 152.795 166.105 152.207 167.125C151.622 168.137 151.867 169.176 152.833 169.733ZM154.383 166.924C154.876 167.209 155.008 167.658 154.765 168.202L153.099 167.24C153.463 166.749 153.924 166.659 154.383 166.924ZM156.133 171.647C156.779 172.021 157.302 171.745 157.697 171.307L157.201 172.166L157.947 172.597L160.524 168.134L159.778 167.703L158.57 169.795C158.756 169.227 158.72 168.629 158.073 168.256C157.287 167.802 156.408 168.156 155.804 169.202C155.2 170.247 155.333 171.186 156.133 171.647ZM156.57 169.644C156.989 168.918 157.55 168.762 158.017 169.031C158.543 169.335 158.559 169.815 158.251 170.348L158.016 170.754C157.709 171.287 157.289 171.507 156.769 171.207C156.296 170.934 156.147 170.377 156.57 169.644Z" fill="white"/>
<path d="M124.427 148.141C124.404 148.121 124.373 148.104 124.345 148.093C123.76 147.727 123.566 146.962 123.916 146.356C124.274 145.737 125.059 145.526 125.678 145.884C126.298 146.241 126.505 147.031 126.15 147.646C125.796 148.25 125.037 148.464 124.427 148.141Z" stroke="white" stroke-width="0.721155" stroke-linecap="round" stroke-linejoin="round"/>
<path d="M122.161 151.036C122.697 151.478 123.411 151.751 124.047 151.709C124.893 151.654 125.278 150.987 124.902 150.228C124.617 149.653 124.014 149.167 123.361 148.928" stroke="white" stroke-width="0.721155" stroke-linecap="round" stroke-linejoin="round"/>
<path d="M119.218 145.133C119.247 145.144 119.277 145.161 119.3 145.181C119.91 145.504 120.669 145.29 121.019 144.684C121.377 144.064 121.166 143.279 120.547 142.921C119.928 142.564 119.14 142.779 118.785 143.394C118.439 144.002 118.633 144.767 119.218 145.133Z" stroke="white" stroke-width="0.721155" stroke-linecap="round" stroke-linejoin="round"/>
<path d="M117.844 148.543C117.193 148.3 116.6 147.819 116.318 147.246C115.943 146.487 116.328 145.82 117.173 145.765C117.814 145.725 118.536 146.004 119.07 146.45" stroke="white" stroke-width="0.721155" stroke-linecap="round" stroke-linejoin="round"/>
<path d="M119.962 149.875C119.938 149.856 119.908 149.839 119.879 149.828C119.294 149.461 119.101 148.697 119.451 148.091C119.808 147.471 120.594 147.261 121.213 147.618C121.832 147.976 122.04 148.766 121.685 149.381C121.331 149.984 120.569 150.203 119.962 149.875Z" stroke="white" stroke-width="0.721155" stroke-linecap="round" stroke-linejoin="round"/>
<path d="M117.914 150.512C117.069 150.566 116.684 151.233 117.059 151.993C117.484 152.856 118.619 153.511 119.579 153.448C120.425 153.393 120.81 152.726 120.434 151.967C120.011 151.11 118.872 150.453 117.914 150.512Z" stroke="white" stroke-width="0.721155" stroke-linecap="round" stroke-linejoin="round"/>
</g>
<defs>
<linearGradient id="paint0_linear_2_1018" x1="51.8923" y1="81.3442" x2="51.8923" y2="105.344" gradientUnits="userSpaceOnUse">
<stop stop-color="#CE9FFC"/>
<stop offset="0.505208" stop-color="#A582F7"/>
<stop offset="1" stop-color="#7367F0"/>
</linearGradient>
<clipPath id="clip0_2_1018">
<rect width="182" height="122" fill="white" transform="translate(61) rotate(30)"/>
</clipPath>
<clipPath id="clip1_2_1018">
<rect width="110" height="110" fill="white" transform="translate(101.72 75.4711) rotate(30)"/>
</clipPath>
</defs>
</svg>
